<?xml version="1.0"?>
<svg xmlns="http://www.w3.org/2000/svg" width="32" height="128" viewBox="0 0 32 128">
  <svg xmlns:xlink="http://www.w3.org/1999/xlink" id="codepen" style="enable-background:new 0 0 300 300" xml:space="preserve" viewBox="0 0 300 300" version="1.1" y="0" x="0px" width="32" height="32">
    <path id="codepen-codepen" d="m296.2 103.4c0-0.4 0-0.8-0.4-1.2 0-0.4 0-0.4-0.4-0.8 0-0.4-0.4-0.8-0.4-0.8 0-0.4 0-0.4-0.4-0.8 0-0.4-0.4-0.4-0.4-0.8s-0.4-0.4-0.4-0.4c0-0.4-0.4-0.4-0.4-0.8l-0.4-0.4-0.8-0.8-0.4-0.4-0.8-0.8-0.4-0.4h-0.4l-133.5-89.6c-4.3-2.8-9.9-2.8-13.8 0l-134.4 89.7h-0.4l-0.4 0.4c-0.4 0-0.4 0.4-0.8 0.4l-0.4 0.4-0.8 0.8-0.4 0.4c0 0.4-0.4 0.4-0.4 0.8l-0.4 0.4c0 0.4-0.4 0.4-0.4 0.8s0 0.4-0.4 0.8c0 0.4-0.4 0.8-0.4 0.8v0.4c0 0.4 0 0.8-0.4 1.2v0.4 1.6 89.3 1.6 0.4c0 0.4 0 0.8 0.4 1.2v0.8c0 0.4 0 0.8 0.4 0.8 0 0 0 0.4 0.4 0.8 0 0.4 0.4 0.4 0.4 0.8l0.4 0.4c0 0.4 0.4 0.4 0.4 0.8l0.4 0.4 0.8 0.8 0.5 0.2c0.4 0 0.4 0.4 0.8 0.8l0.4 0.4 134.7 90.5c2 1.6 4.7 2 7.1 2s4.7-0.8 7.1-2l134-89.3h0.4s0.4-0.4 0.4-0.4c0.4 0 0.4-0.4 0.8-0.8l0.4-0.4 0.8-0.8 0.4-0.4c0-0.4 0.4-0.4 0.4-0.8l0.4-0.4c0-0.4 0.4-0.4 0.4-0.8s0-0.4 0.4-0.8c0-0.4 0.4-0.8 0.4-0.8 0-0.4 0-0.4 0.4-0.8 0-0.4 0-0.8 0.4-1.2v-0.4-1.6-89.7-1.6c-0.9 0.1-0.9-0.3-0.9-0.3zm-146.6 76.7l-44.6-29.7 44.7-29.6 44.7 29.6-44.8 29.7zm-12.2-81.8l-54.6 36.7-44.3-29.6 98.8-66v58.9zm-77.5 51.7l-31.6 21v-41.9l31.6 20.9zm22.5 15.5l54.5 36.7v58.9l-98.8-66 44.3-29.6zm79.8 36.3l54.5-36.7 44.3 29.6-98.8 66v-58.9zm77.5-51.8l31.6-20.9v42.3l-31.6-21.4zm-22.5-15l-54.9-36.7v-58.5l98.8 66-43.9 29.2z"/>
  </svg>
  <svg xmlns:xlink="http://www.w3.org/1999/xlink" id="facebook" style="enable-background:new 0 0 300 300" xml:space="preserve" viewBox="0 0 300 300" version="1.1" y="32" x="0px" width="32" height="32">
    <path id="facebook-facebook" d="m110.6 58.1v41.3h-30.3v50.5h30.3v150.1h62.2v-150.1h41.7s3.9-24.2 5.8-50.7h-47.3s0-29.4 0-34.5c0-5.2 6.8-12.1 13.5-12.1h33.9v-52.6h-46c-65.3 0-63.8 50.6-63.8 58.1z"/>
  </svg>
  <svg xmlns:xlink="http://www.w3.org/1999/xlink" id="github" style="enable-background:new 0 0 300 300" xml:space="preserve" viewBox="0 0 300 300" version="1.1" y="64" x="0px" width="32" height="32">
    <path id="github-guthub" d="m149.6 7.6c-80.2 0-145.1 65-145.1 145.1 0 64.1 41.8 118.4 98.8 138 7.1 0.9 9.8-3.6 9.8-7.1s0-12.5 0-24.9c-40.1 8.9-49-19.6-49-19.6-6.2-16.9-16-21.4-16-21.4-13.4-8.9 0.9-8.9 0.9-8.9 14.2 0.9 22.3 15.1 22.3 15.1 13.4 22.3 33.8 16 41.8 12.5 0.9-9.8 5.3-16 8.9-19.6-32-3.6-65.9-16-65.9-72.1 0-16 5.3-28.5 15.1-39.2-1.8-3.6-6.2-18.7 1.8-38.3 0 0 12.5-3.6 40.1 15.1 11.6-3.6 24-4.5 36.5-4.5s24.9 1.8 36.5 4.5c27.6-18.7 40.1-15.1 40.1-15.1 8 19.6 2.7 34.7 1.8 38.3 8.9 9.8 15.1 23.1 15.1 39.2 0 56.1-33.8 67.6-65.9 71.2 5.3 4.5 9.8 13.4 9.8 26.7v40.1c0 3.6 2.7 8 9.8 7.1 57.9-19.6 98.8-73.9 98.8-138-1-79.2-65.9-144.2-146-144.2z"/>
  </svg>
  <svg xmlns:xlink="http://www.w3.org/1999/xlink" id="linkedin" style="enable-background:new 0 0 300 300" xml:space="preserve" viewBox="0 0 300 300" version="1.1" y="96" x="0px" width="32" height="32">
    <path id="linkedin-linkedin" d="m296.1 181.5v107.9h-62.6v-100.6c0-25.3-9-42.5-31.7-42.5-17.3 0-27.6 11.6-32.1 22.9-1.7 4-2.1 9.6-2.1 15.3v105.1h-62.6s0.8-170.5 0-188.2h62.6v26.7c-0.1 0.2-0.3 0.4-0.4 0.6h0.4v-0.6c8.3-12.8 23.2-31.1 56.4-31.1 41.2-0.2 72.1 26.7 72.1 84.5zm-256.4-170.9c-21.4 0-35.4 14-35.4 32.5 0 18.1 13.6 32.5 34.6 32.5h0.4c21.8 0 35.4-14.5 35.4-32.5-0.5-18.5-13.6-32.5-35-32.5zm-31.7 278.8h62.6v-188.1h-62.6v188.1z"/>
  </svg>
</svg>
