<?xml version="1.0" encoding="utf-8"?>
<!-- Generator: Adobe Illustrator 21.0.0, SVG Export Plug-In . SVG Version: 6.00 Build 0)  -->
<svg version="1.1" id="Layer_1" xmlns="http://www.w3.org/2000/svg" xmlns:xlink="http://www.w3.org/1999/xlink" x="0px" y="0px"
	 viewBox="0 0 268.7 200.1" style="enable-background:new 0 0 268.7 200.1;" xml:space="preserve">
<style type="text/css">
	.st0{fill:#2455A9;stroke:#2455A9;stroke-width:4;stroke-miterlimit:10;}
	.st1{fill:#2455A9;stroke:#2455A9;stroke-width:3.863;stroke-miterlimit:10;}
	.st2{fill:none;stroke:#000000;stroke-width:8.4826;stroke-miterlimit:10;}
	.st3{enable-background:new    ;}
</style>
<rect x="102.7" y="141.1" transform="matrix(0.3056 -0.9522 0.9522 0.3056 -88.0409 221.444)" class="st0" width="10.1" height="60"/>
<rect x="97.2" y="167.8" transform="matrix(0.3056 -0.9522 0.9522 0.3056 -108.5677 228.3459)" class="st0" width="10.1" height="41.6"/>
<rect x="148.3" y="-0.8" transform="matrix(0.3056 -0.9522 0.9522 0.3056 78.7275 166.2737)" class="st0" width="10.1" height="60"/>
<rect x="154.1" y="-9.3" transform="matrix(0.3056 -0.9522 0.9522 0.3056 99.5363 159.4792)" class="st0" width="10.1" height="41.6"/>
<rect x="67.6" y="94.9" transform="matrix(0.3056 -0.9522 0.9522 0.3056 -5.2751 192.2772)" class="st1" width="123.2" height="9.8"/>
<g>
	<polygon points="-102.1,730.6 -165.3,690 -94.9,655.5 -90.6,661.6 -150.2,690.8 -96.9,725 	"/>
</g>
<g>
	<polygon points="-56.6,730.6 6.5,690 -63.9,655.5 -68.2,661.6 -8.6,690.8 -61.8,725 	"/>
</g>
<polyline class="st2" points="281.4,734.7 339.6,689.7 274.6,651.4 "/>
<text transform="matrix(1.1034 0 0 1 6.5332 676.9102)" style="font-family:'ArialMT'; font-size:100.5867px;">&lt; / &gt;</text>
<g>
	<polygon class="st0" points="70.8,134.9 0,92.9 78.8,57.2 84.4,64.5 19.7,93.9 77.5,128.2 	"/>
</g>
<g>
	<polygon class="st0" points="197.9,134.9 268.7,92.9 189.8,57.2 184.2,64.5 249,93.9 191.2,128.2 	"/>
</g>
</svg>
