<?xml version="1.0" encoding="utf-8"?>
<!-- Generator: Adobe Illustrator 21.0.0, SVG Export Plug-In . SVG Version: 6.00 Build 0)  -->
<svg version="1.1" id="Layer_1" xmlns="http://www.w3.org/2000/svg" xmlns:xlink="http://www.w3.org/1999/xlink" x="0px" y="0px"
	 viewBox="0 0 268.7 200.1" style="enable-background:new 0 0 268.7 200.1;" xml:space="preserve">
<style type="text/css">
	.st0{fill:#F97BCC;stroke:#F97BCC;stroke-width:0.6016;stroke-miterlimit:10;}
	.st1{fill:#F97BCC;stroke:#F97BCC;stroke-width:0.5009;stroke-miterlimit:10;}
	.st2{fill:#F97BCC;stroke:#F97BCC;stroke-width:0.8773;stroke-miterlimit:10;}
	.st3{fill:none;stroke:#000000;stroke-width:8.4826;stroke-miterlimit:10;}
	.st4{enable-background:new    ;}
	.st5{fill:#F97BCC;}
</style>
<rect x="102.8" y="141.1" transform="matrix(0.3056 -0.9522 0.9522 0.3056 -88.081 221.4886)" class="st0" width="10.1" height="60"/>
<rect x="97.2" y="167.8" transform="matrix(0.3056 -0.9522 0.9522 0.3056 -108.5647 228.3322)" class="st1" width="10.1" height="41.6"/>
<rect x="148.3" y="-0.9" transform="matrix(0.3056 -0.9522 0.9522 0.3056 78.7866 166.289)" class="st0" width="10.1" height="60"/>
<rect x="154" y="-9.3" transform="matrix(0.3056 -0.9522 0.9522 0.3056 99.5496 159.4315)" class="st1" width="10.1" height="41.6"/>
<rect x="66.7" y="95" transform="matrix(0.3056 -0.9522 0.9522 0.3056 -4.6595 193.797)" class="st2" width="127.6" height="10.1"/>
<g>
	<polygon points="-102.1,730.6 -165.3,690 -94.9,655.5 -90.6,661.6 -150.2,690.8 -96.9,725 	"/>
</g>
<g>
	<polygon points="-56.6,730.6 6.5,690 -63.9,655.5 -68.2,661.6 -8.6,690.8 -61.8,725 	"/>
</g>
<polyline class="st3" points="281.4,734.7 339.6,689.7 274.6,651.4 "/>
<text transform="matrix(1.1034 0 0 1 6.5337 676.9102)" style="font-family:'ArialMT'; font-size:100.5867px;">&lt; / &gt;</text>
<g>
	<polygon class="st5" points="70.8,134.9 0,92.9 78.8,57.2 84.4,64.5 19.7,93.9 77.5,128.2 	"/>
</g>
<g>
	<polygon class="st5" points="197.9,134.9 268.7,92.9 189.8,57.2 184.2,64.5 249,93.9 191.2,128.2 	"/>
</g>
</svg>
